{
  "accessors": [
    {
      "bufferView": 1,
      "componentType": 5126,
      "count": 540,
      "max": [
        39.107120513916016,
        39.107120513916016,
        39.107120513916016
      ],
      "min": [
        -39.107120513916016,
        -39.107120513916016,
        -39.107120513916016
      ],
      "type": "VEC3"
    },
    {
      "bufferView": 1,
      "byteOffset": 6480,
      "componentType": 5126,
      "count": 540,
      "max": [
        0.9638612866401672,
        0.9638612866401672,
        0.9638612866401672
      ],
      "min": [
        -0.9638612866401672,
        -0.9638612866401672,
        -0.9638612866401672
      ],
      "type": "VEC3"
    },
    {
      "bufferView": 0,
      "componentType": 5125,
      "count": 1068,
      "type": "SCALAR"
    },
    {
      "bufferView": 1,
      "byteOffset": 12960,
      "componentType": 5126,
      "count": 540,
      "max": [
        39.107120513916016,
        39.107120513916016,
        39.107120513916016
      ],
      "min": [
        -39.107120513916016,
        -39.107120513916016,
        -39.107120513916016
      ],
      "type": "VEC3"
    },
    {
      "bufferView": 1,
      "byteOffset": 19440,
      "componentType": 5126,
      "count": 540,
      "max": [
        0.9638612866401672,
        0.9638612866401672,
        0.9638612866401672
      ],
      "min": [
        -0.9638612866401672,
        -0.9638612866401672,
        -0.9638612866401672
      ],
      "type": "VEC3"
    },
    {
      "bufferView": 0,
      "byteOffset": 4272,
      "componentType": 5125,
      "count": 1068,
      "type": "SCALAR"
    }
  ],
  "asset": {
    "extras": {
      "author": "Gerry in Québec (https://sketchfab.com/quebec)",
      "license": "CC-BY-4.0 (http://creativecommons.org/licenses/by/4.0/)",
      "source": "https://sketchfab.com/3d-models/equilateral-goldberg-polyhedron-i30-136d354b0f9f40efa8d0f7af18d8a4de",
      "title": "Equilateral Goldberg polyhedron I{3,0}"
    },
    "generator": "Sketchfab-12.66.0",
    "version": "2.0"
  },
  "bufferViews": [
    {
      "buffer": 0,
      "byteLength": 8544,
      "name": "floatBufferViews",
      "target": 34963
    },
    {
      "buffer": 0,
      "byteLength": 25920,
      "byteOffset": 8544,
      "byteStride": 12,
      "name": "floatBufferViews",
      "target": 34962
    }
  ],
  "buffers": [
    {
      "byteLength": 34464,
      "uri": "scene.bin"
    }
  ],
  "materials": [
    {
      "name": "material_0",
      "pbrMetallicRoughness": {
        "baseColorFactor": [
          0.5,
          0.5,
          0.5,
          1.0
        ],
        "metallicFactor": 0.0,
        "roughnessFactor": 0.2
      }
    },
    {
      "name": "material_0_1",
      "pbrMetallicRoughness": {
        "metallicFactor": 0.0,
        "roughnessFactor": 0.2
      }
    }
  ],
  "meshes": [
    {
      "name": "Material3",
      "primitives": [
        {
          "attributes": {
            "NORMAL": 1,
            "POSITION": 0
          },
          "indices": 2,
          "material": 0,
          "mode": 4
        }
      ]
    },
    {
      "name": "Material2",
      "primitives": [
        {
          "attributes": {
            "NORMAL": 4,
            "POSITION": 3
          },
          "indices": 5,
          "material": 1,
          "mode": 4
        }
      ]
    }
  ],
  "nodes": [
    {
      "children": [
        1
      ],
      "matrix": [
        1.0,
        0.0,
        0.0,
        0.0,
        0.0,
        2.220446049250313e-16,
        -1.0,
        0.0,
        0.0,
        1.0,
        2.220446049250313e-16,
        0.0,
        0.0,
        0.0,
        0.0,
        1.0
      ],
      "name": "Sketchfab_model"
    },
    {
      "children": [
        2
      ],
      "name": "Collada visual scene group"
    },
    {
      "children": [
        3
      ],
      "name": "SketchUp"
    },
    {
      "children": [
        4
      ],
      "name": "instance_0"
    },
    {
      "children": [
        5,
        6
      ],
      "name": "skp2036"
    },
    {
      "mesh": 0,
      "name": "Material3"
    },
    {
      "mesh": 1,
      "name": "Material2"
    }
  ],
  "scene": 0,
  "scenes": [
    {
      "name": "Sketchfab_Scene",
      "nodes": [
        0
      ]
    }
  ]
}
